# xmcd
#
# Track frame offsets:
#	150
#	15237
#	33177
#	65112
#
# Disc length: 933 seconds
#
# Revision: 1
# Processed by: cddbd v1.5.1PL2 Copyright (c) Steve Scherf et al.
# Submitted via: dBpowerAMP V4.0
#
DISCID=2703a304
DTITLE=THE MAD CAPSULE MARKETS - ?[PULSE]
DYEAR=1900
DGENRE=Punk Rock
TTITLE0=01 - ?[PULSE]
TTITLE1=02 - JAG(????????·??????)
TTITLE2=03 - START IT UP(???·?????)
TTITLE3=DATA
EXTD=Chris
EXTT0=
EXTT1=
EXTT2=
EXTT3=
PLAYORDER=
